<?xml version="1.0" encoding="UTF-8" standalone="no"?>
<svg
   xmlns:dc="http://purl.org/dc/elements/1.1/"
   xmlns:cc="http://creativecommons.org/ns#"
   xmlns:rdf="http://www.w3.org/1999/02/22-rdf-syntax-ns#"
   xmlns:svg="http://www.w3.org/2000/svg"
   xmlns="http://www.w3.org/2000/svg"
   xmlns:xlink="http://www.w3.org/1999/xlink"
   xmlns:sodipodi="http://sodipodi.sourceforge.net/DTD/sodipodi-0.dtd"
   xmlns:inkscape="http://www.inkscape.org/namespaces/inkscape"
   xml:space="preserve"
   viewBox="0 0 285.17087 60.5"
   y="0px"
   x="0px"
   id="Layer_1"
   version="1.1"
   inkscape:version="0.91 r13725"
   sodipodi:docname="nanochip-dark.svg"
   width="285.17087"
   height="60.5"><sodipodi:namedview
     pagecolor="#ffffff"
     bordercolor="#666666"
     borderopacity="1"
     objecttolerance="10"
     gridtolerance="10"
     guidetolerance="10"
     inkscape:pageopacity="0"
     inkscape:pageshadow="2"
     inkscape:window-width="1680"
     inkscape:window-height="956"
     id="namedview5578"
     showgrid="false"
     fit-margin-top="0"
     fit-margin-left="0"
     fit-margin-right="0"
     fit-margin-bottom="0"
     inkscape:zoom="2.0066336"
     inkscape:cx="114.7001"
     inkscape:cy="-10.095261"
     inkscape:window-x="0"
     inkscape:window-y="0"
     inkscape:window-maximized="0"
     inkscape:current-layer="Layer_1" /><metadata
     id="metadata22"><rdf:RDF><cc:Work
         rdf:about=""><dc:format>image/svg+xml</dc:format><dc:type
           rdf:resource="http://purl.org/dc/dcmitype/StillImage" /><dc:title></dc:title></cc:Work></rdf:RDF></metadata><defs
     id="defs20"><linearGradient
       inkscape:collect="always"
       id="linearGradient7545"><stop
         style="stop-color:#f77062;stop-opacity:1"
         offset="0"
         id="stop7547" /><stop
         style="stop-color:#fe5196;stop-opacity:1"
         offset="1"
         id="stop7549" /></linearGradient><linearGradient
       inkscape:collect="always"
       id="linearGradient7537"><stop
         style="stop-color:#f77062;stop-opacity:1"
         offset="0"
         id="stop7539" /><stop
         style="stop-color:#fe5196;stop-opacity:1"
         offset="1"
         id="stop7541" /></linearGradient><linearGradient
       inkscape:collect="always"
       xlink:href="#linearGradient7537"
       id="linearGradient7543"
       x1="179.10001"
       y1="556.70001"
       x2="275.10001"
       y2="556.70001"
       gradientUnits="userSpaceOnUse"
       gradientTransform="translate(-0.39583513,-0.39582909)" /><linearGradient
       inkscape:collect="always"
       xlink:href="#linearGradient7545"
       id="linearGradient7551"
       x1="187.10001"
       y1="556.61249"
       x2="267.20001"
       y2="556.61249"
       gradientUnits="userSpaceOnUse"
       gradientTransform="translate(-0.39583513,-0.39582909)" /><linearGradient
       inkscape:collect="always"
       xlink:href="#linearGradient7545"
       id="linearGradient7559"
       x1="72.773926"
       y1="30.000031"
       x2="284.92087"
       y2="30.000031"
       gradientUnits="userSpaceOnUse" /><linearGradient
       inkscape:collect="always"
       xlink:href="#linearGradient7537"
       id="linearGradient7561"
       gradientUnits="userSpaceOnUse"
       x1="179.10001"
       y1="556.70001"
       x2="275.10001"
       y2="556.70001"
       gradientTransform="translate(-0.39583513,-0.39582909)" /><linearGradient
       inkscape:collect="always"
       xlink:href="#linearGradient7545"
       id="linearGradient7563"
       gradientUnits="userSpaceOnUse"
       x1="187.10001"
       y1="556.61249"
       x2="267.20001"
       y2="556.61249"
       gradientTransform="translate(-0.39583513,-0.39582909)" /><linearGradient
       inkscape:collect="always"
       xlink:href="#linearGradient7545"
       id="linearGradient7565"
       gradientUnits="userSpaceOnUse"
       x1="187.10001"
       y1="556.61249"
       x2="267.20001"
       y2="556.61249"
       gradientTransform="translate(-0.39583513,-0.39582909)" /></defs><style
     id="style3"
     type="text/css">
	.st0{fill:#FF0000;}
	.st1{fill:#FFFFFF;}
</style><g
     id="XMLID_14_"
     transform="matrix(0.63157895,0,0,0.63157895,-113.18158,-321.35)"
     style="fill:#ffffff;fill-opacity:1;stroke:url(#linearGradient7543);stroke-width:0.79166669;stroke-miterlimit:4;stroke-dasharray:none;stroke-opacity:1"><path
       style="fill:#ffffff;fill-opacity:1;stroke:url(#linearGradient7561);stroke-width:0.79166669;stroke-miterlimit:4;stroke-dasharray:none;stroke-opacity:1"
       inkscape:connector-curvature="0"
       id="XMLID_35_"
       class="st0"
       d="m 194.6,604.2 c -8.2,0 -15,-6.8 -15,-15 l 0,-65 c 0,-8.2 6.8,-15 15,-15 l 65,0 c 8.2,0 15,6.8 15,15 l 0,65 c 0,8.2 -6.8,15 -15,15 l -65,0 z" /></g><g
     id="XMLID_2_"
     transform="matrix(0.63157895,0,0,0.63157895,-113.18158,-321.35)"
     style="fill:url(#linearGradient7551);fill-opacity:1"><path
       style="fill:url(#linearGradient7563);fill-opacity:1"
       inkscape:connector-curvature="0"
       id="XMLID_8_"
       class="st1"
       d="m 263.2,578.8 c -1.9,-1.8 -3.1,-4.3 -3.1,-7.1 l 0,0 0,-30.3 0,0 c 0,-2.8 1.2,-5.3 3.1,-7.1 2.4,-1.8 3.9,-4.7 3.9,-7.9 0,-5.5 -4.5,-10 -10,-10 -5.5,0 -10,4.5 -10,10 0,3.2 1.5,6.1 3.9,7.9 1.9,1.8 3,4.3 3.1,7 l 0,0 0,30.3 0,0 c 0,0.4 0,0.8 -0.1,1.2 -0.1,0.5 -0.4,1 -0.8,1.4 -1,1 -2.7,1.1 -3.8,0.3 -0.2,-0.2 -0.5,-0.4 -0.7,-0.6 l 0,0 -38.9,-38.9 0,0 c -1.9,-2 -2.9,-4.6 -2.8,-7.2 0.4,-3 -0.6,-6.1 -2.8,-8.3 -3.9,-3.9 -10.2,-3.9 -14.1,0 -3.9,3.9 -3.9,10.2 0,14.1 2.3,2.3 5.4,3.2 8.3,2.8 2.6,-0.1 5.2,0.9 7.2,2.8 l 0,0 38.9,38.9 0,0 c 1.9,2 2.8,4.6 2.8,7.2 -0.1,0.4 -0.1,0.9 -0.1,1.3 0,5.5 4.5,10 10,10 5.5,0 10,-4.5 10,-10 -0.1,-3.2 -1.7,-6 -4,-7.8 z m -64,-50 c -1.2,1.2 -3.1,1.2 -4.2,0 -1.1,-1.2 -1.2,-3.1 0,-4.2 1.2,-1.1 3.1,-1.2 4.2,0 1.1,1.2 1.2,3 0,4.2 z m 57.9,-5.3 c 1.7,0 3,1.3 3,3 0,1.7 -1.3,3 -3,3 -1.7,0 -3,-1.3 -3,-3 0,-1.7 1.3,-3 3,-3 z m 0,66.2 c -1.7,0 -3,-1.3 -3,-3 0,-1.7 1.3,-3 3,-3 1.7,0 3,1.3 3,3 0,1.7 -1.3,3 -3,3 z" /><path
       style="fill:url(#linearGradient7565);fill-opacity:1"
       inkscape:connector-curvature="0"
       id="XMLID_3_"
       class="st1"
       d="m 234.7,579.6 c -2.3,-2.3 -5.4,-3.2 -8.3,-2.8 -2.6,0.1 -5.2,-0.9 -7.2,-2.8 l 0,0 -9.5,-9.5 c -1.9,-2 -2.8,-4.5 -2.7,-7.1 0.1,-0.4 0.1,-0.9 0.1,-1.3 0,-5.5 -4.5,-10 -10,-10 -5.5,0 -10,4.5 -10,10 0,3.2 1.5,6.1 3.9,7.9 1.9,1.8 3.1,4.3 3.1,7.1 l 0,0 0,0.7 0,0 c 0,2.8 -1.2,5.3 -3.1,7.1 -2.4,1.8 -3.9,4.7 -3.9,7.9 0,5.5 4.5,10 10,10 5.5,0 10,-4.5 10,-10 0,-3.2 -1.5,-6.1 -3.9,-7.9 -1.9,-1.8 -3,-4.3 -3.1,-7 l 0,0 0,-0.7 0,0 c 0,-0.3 0,-0.7 0.1,-1 0.1,-0.6 0.4,-1.1 0.8,-1.5 1.2,-1.2 3,-1.2 4.2,0 0.1,0.1 0.2,0.2 0.4,0.3 l 0,0 9.5,9.5 c 1.9,2 2.8,4.6 2.8,7.1 -0.4,3 0.6,6.1 2.8,8.3 3.9,3.9 10.2,3.9 14.1,0 3.8,-4.1 3.8,-10.4 -0.1,-14.3 z m -37.6,10.1 c -1.7,0 -3,-1.3 -3,-3 0,-1.7 1.3,-3 3,-3 1.7,0 3,1.3 3,3 0,1.7 -1.4,3 -3,3 z m 0,-30.6 c -1.7,0 -3,-1.3 -3,-3 0,-1.7 1.3,-3 3,-3 1.7,0 3,1.3 3,3 0,1.7 -1.4,3 -3,3 z m 32.7,29.7 c -1.2,1.2 -3.1,1.2 -4.2,0 -1.1,-1.2 -1.2,-3.1 0,-4.2 1.2,-1.1 3.1,-1.2 4.2,0 1.1,1.2 1.2,3 0,4.2 z" /></g><text
     xml:space="preserve"
     style="font-style:normal;font-variant:normal;font-weight:bold;font-stretch:normal;font-size:45px;line-height:125%;font-family:'Fira Code';-inkscape-font-specification:'Fira Code, Bold';text-align:start;letter-spacing:0px;word-spacing:0px;writing-mode:lr-tb;text-anchor:start;fill:#ffffff;fill-opacity:1;stroke:url(#linearGradient7559);stroke-width:0.5;stroke-linecap:butt;stroke-linejoin:miter;stroke-miterlimit:4;stroke-dasharray:none;stroke-opacity:1;"
     x="70.933922"
     y="43.457527"
     id="text6120"
     sodipodi:linespacing="125%"><tspan
       sodipodi:role="line"
       id="tspan6122"
       x="70.933922"
       y="43.457527"
       style="stroke:url(#linearGradient7559);fill:#ffffff;fill-opacity:1;">Nanochip</tspan></text>
</svg>