<?xml version="1.0" encoding="UTF-8" standalone="no"?>
<svg
   xmlns:dc="http://purl.org/dc/elements/1.1/"
   xmlns:cc="http://creativecommons.org/ns#"
   xmlns:rdf="http://www.w3.org/1999/02/22-rdf-syntax-ns#"
   xmlns:svg="http://www.w3.org/2000/svg"
   xmlns="http://www.w3.org/2000/svg"
   xmlns:xlink="http://www.w3.org/1999/xlink"
   height="60"
   width="284.67087"
   version="1.1"
   id="Layer_1"
   x="0px"
   y="0px"
   viewBox="0 0 284.67087 60"
   xml:space="preserve"><metadata
     id="metadata22"><rdf:RDF><cc:Work
         rdf:about=""><dc:format>image/svg+xml</dc:format><dc:type
           rdf:resource="http://purl.org/dc/dcmitype/StillImage" /><dc:title></dc:title></cc:Work></rdf:RDF></metadata><defs
     id="defs20"><linearGradient
       id="linearGradient6137"><stop
         id="stop6139"
         offset="0"
         style="stop-color:#f77062;stop-opacity:1" /><stop
         id="stop6141"
         offset="1"
         style="stop-color:#fe5196;stop-opacity:1" /></linearGradient><linearGradient
       gradientUnits="userSpaceOnUse"
       y2="556.7"
       x2="274.6"
       y1="556.7"
       x1="179.6"
       id="linearGradient6143"
       xlink:href="#linearGradient6137" /></defs><style
     type="text/css"
     id="style3">
	.st0{fill:#FF0000;}
	.st1{fill:#FFFFFF;}
</style><g
     style="fill-opacity:1;fill:url(#linearGradient6143)"
     transform="matrix(0.63157895,0,0,0.63157895,-113.43158,-321.6)"
     id="XMLID_14_"><path
       d="m 194.6,604.2 c -8.2,0 -15,-6.8 -15,-15 l 0,-65 c 0,-8.2 6.8,-15 15,-15 l 65,0 c 8.2,0 15,6.8 15,15 l 0,65 c 0,8.2 -6.8,15 -15,15 l -65,0 z"
       class="st0"
       id="XMLID_35_"
       style="fill:url(#linearGradient6143);fill-opacity:1" /></g><g
     transform="matrix(0.63157895,0,0,0.63157895,-113.43158,-321.6)"
     id="XMLID_2_"><path
       d="m 263.2,578.8 c -1.9,-1.8 -3.1,-4.3 -3.1,-7.1 l 0,0 0,-30.3 0,0 c 0,-2.8 1.2,-5.3 3.1,-7.1 2.4,-1.8 3.9,-4.7 3.9,-7.9 0,-5.5 -4.5,-10 -10,-10 -5.5,0 -10,4.5 -10,10 0,3.2 1.5,6.1 3.9,7.9 1.9,1.8 3,4.3 3.1,7 l 0,0 0,30.3 0,0 c 0,0.4 0,0.8 -0.1,1.2 -0.1,0.5 -0.4,1 -0.8,1.4 -1,1 -2.7,1.1 -3.8,0.3 -0.2,-0.2 -0.5,-0.4 -0.7,-0.6 l 0,0 -38.9,-38.9 0,0 c -1.9,-2 -2.9,-4.6 -2.8,-7.2 0.4,-3 -0.6,-6.1 -2.8,-8.3 -3.9,-3.9 -10.2,-3.9 -14.1,0 -3.9,3.9 -3.9,10.2 0,14.1 2.3,2.3 5.4,3.2 8.3,2.8 2.6,-0.1 5.2,0.9 7.2,2.8 l 0,0 38.9,38.9 0,0 c 1.9,2 2.8,4.6 2.8,7.2 -0.1,0.4 -0.1,0.9 -0.1,1.3 0,5.5 4.5,10 10,10 5.5,0 10,-4.5 10,-10 -0.1,-3.2 -1.7,-6 -4,-7.8 z m -64,-50 c -1.2,1.2 -3.1,1.2 -4.2,0 -1.1,-1.2 -1.2,-3.1 0,-4.2 1.2,-1.1 3.1,-1.2 4.2,0 1.1,1.2 1.2,3 0,4.2 z m 57.9,-5.3 c 1.7,0 3,1.3 3,3 0,1.7 -1.3,3 -3,3 -1.7,0 -3,-1.3 -3,-3 0,-1.7 1.3,-3 3,-3 z m 0,66.2 c -1.7,0 -3,-1.3 -3,-3 0,-1.7 1.3,-3 3,-3 1.7,0 3,1.3 3,3 0,1.7 -1.3,3 -3,3 z"
       class="st1"
       id="XMLID_8_"
       style="fill:#ffffff" /><path
       d="m 234.7,579.6 c -2.3,-2.3 -5.4,-3.2 -8.3,-2.8 -2.6,0.1 -5.2,-0.9 -7.2,-2.8 l 0,0 -9.5,-9.5 c -1.9,-2 -2.8,-4.5 -2.7,-7.1 0.1,-0.4 0.1,-0.9 0.1,-1.3 0,-5.5 -4.5,-10 -10,-10 -5.5,0 -10,4.5 -10,10 0,3.2 1.5,6.1 3.9,7.9 1.9,1.8 3.1,4.3 3.1,7.1 l 0,0 0,0.7 0,0 c 0,2.8 -1.2,5.3 -3.1,7.1 -2.4,1.8 -3.9,4.7 -3.9,7.9 0,5.5 4.5,10 10,10 5.5,0 10,-4.5 10,-10 0,-3.2 -1.5,-6.1 -3.9,-7.9 -1.9,-1.8 -3,-4.3 -3.1,-7 l 0,0 0,-0.7 0,0 c 0,-0.3 0,-0.7 0.1,-1 0.1,-0.6 0.4,-1.1 0.8,-1.5 1.2,-1.2 3,-1.2 4.2,0 0.1,0.1 0.2,0.2 0.4,0.3 l 0,0 9.5,9.5 c 1.9,2 2.8,4.6 2.8,7.1 -0.4,3 0.6,6.1 2.8,8.3 3.9,3.9 10.2,3.9 14.1,0 3.8,-4.1 3.8,-10.4 -0.1,-14.3 z m -37.6,10.1 c -1.7,0 -3,-1.3 -3,-3 0,-1.7 1.3,-3 3,-3 1.7,0 3,1.3 3,3 0,1.7 -1.4,3 -3,3 z m 0,-30.6 c -1.7,0 -3,-1.3 -3,-3 0,-1.7 1.3,-3 3,-3 1.7,0 3,1.3 3,3 0,1.7 -1.4,3 -3,3 z m 32.7,29.7 c -1.2,1.2 -3.1,1.2 -4.2,0 -1.1,-1.2 -1.2,-3.1 0,-4.2 1.2,-1.1 3.1,-1.2 4.2,0 1.1,1.2 1.2,3 0,4.2 z"
       class="st1"
       id="XMLID_3_"
       style="fill:#ffffff" /></g><text
     id="text6120"
     y="43.207531"
     x="70.683922"
     style="font-style:normal;font-variant:normal;font-weight:bold;font-stretch:normal;font-size:45px;line-height:125%;font-family:'Fira Code';-inkscape-font-specification:'Fira Code, Bold';text-align:start;letter-spacing:0px;word-spacing:0px;writing-mode:lr-tb;text-anchor:start;fill:#f77062;fill-opacity:1;stroke:none;stroke-width:1px;stroke-linecap:butt;stroke-linejoin:miter;stroke-opacity:1;"
     xml:space="preserve"><tspan
       y="43.207531"
       x="70.683922"
       id="tspan6122">Nanochip</tspan></text>
</svg>