<?xml version="1.0" encoding="UTF-8" standalone="no"?>
<!-- Generator: Gravit.io -->
<svg xmlns="http://www.w3.org/2000/svg" xmlns:xlink="http://www.w3.org/1999/xlink" style="isolation:isolate" viewBox="0 0 325 60.5" width="325" height="60.5"><defs><clipPath id="_clipPath_mQTYFxXp0vry0xUXDXybV2pIhfImCYBu"><rect width="325" height="60.5"/></clipPath></defs><g clip-path="url(#_clipPath_mQTYFxXp0vry0xUXDXybV2pIhfImCYBu)"><g><linearGradient id="_lgradient_32" x1="-0.009429738210526173" y1="0.4958334832631577" x2="1.0010965775789469" y2="0.4958334832631577"><stop offset="0%" stop-opacity="1" style="stop-color:rgb(247,112,98)"/><stop offset="100%" stop-opacity="1" style="stop-color:rgb(254,81,150)"/></linearGradient><path d=" M 9.724 60.25 C 4.545 60.25 0.25 55.955 0.25 50.776 L 0.25 9.724 C 0.25 4.545 4.545 0.25 9.724 0.25 L 50.776 0.25 C 55.955 0.25 60.25 4.545 60.25 9.724 L 60.25 50.776 C 60.25 55.955 55.955 60.25 50.776 60.25 L 9.724 60.25 L 9.724 60.25 Z " fill="rgb(255,255,255)" vector-effect="non-scaling-stroke" stroke-width="0.5" stroke="url(#_lgradient_32)" stroke-linejoin="miter" stroke-linecap="butt" stroke-miterlimit="4"/></g><g><linearGradient id="_lgradient_33" x1="-0.005883475538893013" y1="0.4964670936408986" x2="0.995053731583881" y2="0.4964670936408986" gradientTransform="matrix(50.542,0,0,50.653,5.034,4.797)" gradientUnits="userSpaceOnUse"><stop offset="0%" stop-opacity="1" style="stop-color:rgb(247,112,98)"/><stop offset="100%" stop-opacity="1" style="stop-color:rgb(254,81,150)"/></linearGradient><path d=" M 53.05 44.208 C 51.85 43.071 51.092 41.492 51.092 39.724 L 51.092 39.724 L 51.092 20.587 L 51.092 20.587 C 51.092 18.818 51.85 17.239 53.05 16.103 C 54.566 14.966 55.513 13.134 55.513 11.113 C 55.513 7.639 52.671 4.797 49.197 4.797 C 45.724 4.797 42.882 7.639 42.882 11.113 C 42.882 13.134 43.829 14.966 45.345 16.103 C 46.545 17.239 47.239 18.818 47.303 20.524 L 47.303 20.524 L 47.303 39.661 L 47.303 39.661 C 47.303 39.913 47.303 40.166 47.239 40.418 C 47.176 40.734 46.987 41.05 46.734 41.303 C 46.103 41.934 45.029 41.997 44.334 41.492 C 44.208 41.366 44.018 41.239 43.892 41.113 L 43.892 41.113 L 19.324 16.545 L 19.324 16.545 C 18.124 15.282 17.492 13.639 17.555 11.997 C 17.808 10.103 17.176 8.145 15.787 6.755 C 13.324 4.292 9.345 4.292 6.882 6.755 C 4.418 9.218 4.418 13.197 6.882 15.661 C 8.334 17.113 10.292 17.682 12.124 17.429 C 13.766 17.366 15.408 17.997 16.671 19.197 L 16.671 19.197 L 41.239 43.766 L 41.239 43.766 C 42.439 45.029 43.008 46.671 43.008 48.313 C 42.945 48.566 42.945 48.882 42.945 49.134 C 42.945 52.608 45.787 55.45 49.261 55.45 C 52.734 55.45 55.576 52.608 55.576 49.134 C 55.513 47.113 54.503 45.345 53.05 44.208 L 53.05 44.208 Z  M 12.629 12.629 C 11.871 13.387 10.671 13.387 9.976 12.629 C 9.282 11.871 9.218 10.671 9.976 9.976 C 10.734 9.282 11.934 9.218 12.629 9.976 C 13.324 10.734 13.387 11.871 12.629 12.629 Z  M 49.197 9.282 C 50.271 9.282 51.092 10.103 51.092 11.176 C 51.092 12.25 50.271 13.071 49.197 13.071 C 48.124 13.071 47.303 12.25 47.303 11.176 C 47.303 10.103 48.124 9.282 49.197 9.282 Z  M 49.197 51.092 C 48.124 51.092 47.303 50.271 47.303 49.197 C 47.303 48.124 48.124 47.303 49.197 47.303 C 50.271 47.303 51.092 48.124 51.092 49.197 C 51.092 50.271 50.271 51.092 49.197 51.092 Z " fill="url(#_lgradient_33)"/><linearGradient id="_lgradient_34" x1="-0.007832286448021364" y1="0.19944131907343277" x2="1.5771255571495364" y2="0.19944131907343277" gradientTransform="matrix(31.918,0,0,32.037,4.987,23.555)" gradientUnits="userSpaceOnUse"><stop offset="0%" stop-opacity="1" style="stop-color:rgb(247,112,98)"/><stop offset="100%" stop-opacity="1" style="stop-color:rgb(254,81,150)"/></linearGradient><path d=" M 35.05 44.713 C 33.597 43.261 31.639 42.692 29.808 42.945 C 28.166 43.008 26.524 42.376 25.261 41.176 L 25.261 41.176 L 19.261 35.176 C 18.061 33.913 17.492 32.334 17.555 30.692 C 17.618 30.439 17.618 30.124 17.618 29.871 C 17.618 26.397 14.776 23.555 11.303 23.555 C 7.829 23.555 4.987 26.397 4.987 29.871 C 4.987 31.892 5.934 33.724 7.45 34.861 C 8.65 35.997 9.408 37.576 9.408 39.345 L 9.408 39.345 L 9.408 39.787 L 9.408 39.787 C 9.408 41.555 8.65 43.134 7.45 44.271 C 5.934 45.408 4.987 47.239 4.987 49.261 C 4.987 52.734 7.829 55.576 11.303 55.576 C 14.776 55.576 17.618 52.734 17.618 49.261 C 17.618 47.239 16.671 45.408 15.155 44.271 C 13.955 43.134 13.261 41.555 13.197 39.85 L 13.197 39.85 L 13.197 39.408 L 13.197 39.408 C 13.197 39.218 13.197 38.966 13.261 38.776 C 13.324 38.397 13.513 38.082 13.766 37.829 C 14.524 37.071 15.661 37.071 16.418 37.829 C 16.482 37.892 16.545 37.955 16.671 38.018 L 16.671 38.018 L 22.671 44.018 C 23.871 45.282 24.439 46.924 24.439 48.503 C 24.187 50.397 24.818 52.355 26.208 53.745 C 28.671 56.208 32.65 56.208 35.113 53.745 C 37.513 51.155 37.513 47.176 35.05 44.713 L 35.05 44.713 Z  M 11.303 51.092 C 10.229 51.092 9.408 50.271 9.408 49.197 C 9.408 48.124 10.229 47.303 11.303 47.303 C 12.376 47.303 13.197 48.124 13.197 49.197 C 13.197 50.271 12.313 51.092 11.303 51.092 Z  M 11.303 31.766 C 10.229 31.766 9.408 30.945 9.408 29.871 C 9.408 28.797 10.229 27.976 11.303 27.976 C 12.376 27.976 13.197 28.797 13.197 29.871 C 13.197 30.945 12.313 31.766 11.303 31.766 Z  M 31.955 50.524 C 31.197 51.282 29.997 51.282 29.303 50.524 C 28.608 49.766 28.545 48.566 29.303 47.871 C 30.061 47.176 31.261 47.113 31.955 47.871 C 32.65 48.629 32.713 49.766 31.955 50.524 Z " fill="url(#_lgradient_34)"/></g><g transform="matrix(2.405,0,0,2.203,67.294,0)"><g stroke="url(#_lgradient_35)"><text transform="matrix(1,0,0,1,1,22.377)" style="font-family:&quot;Open Sans&quot;;font-weight:700;font-size:20px;font-style:normal;fill:#FFFFFF;stroke-width:0.5;">Nanochip</text></g><defs><linearGradient id="_lgradient_35" x1="0.020000043478260898" y1="1.2718545749731087" x2="1.020000043478261" y2="1.2718545749731087"><stop offset="0%" stop-opacity="1" style="stop-color:rgb(247,112,98)"/><stop offset="100%" stop-opacity="1" style="stop-color:rgb(254,81,150)"/></linearGradient></defs></g></g></svg>