<?xml version="1.0" encoding="UTF-8" standalone="no"?>
<!-- Generator: Gravit.io -->
<svg xmlns="http://www.w3.org/2000/svg" xmlns:xlink="http://www.w3.org/1999/xlink" style="isolation:isolate" viewBox="0 0 325 60.5" width="325" height="60.5"><defs><clipPath id="_clipPath_5Qg3VDiZsfkO7STzmVnq1f0OP3jTTSuB"><rect width="325" height="60.5"/></clipPath></defs><g clip-path="url(#_clipPath_5Qg3VDiZsfkO7STzmVnq1f0OP3jTTSuB)"><g><linearGradient id="_lgradient_2" x1="0" y1="0.5" x2="1" y2="0.5" gradientTransform="matrix(60,0,0,60,0,0)" gradientUnits="userSpaceOnUse"><stop offset="0%" stop-opacity="1" style="stop-color:rgb(247,112,98)"/><stop offset="100%" stop-opacity="1" style="stop-color:rgb(254,81,150)"/></linearGradient><path d=" M 9.474 60 C 4.295 60 0 55.705 0 50.526 L 0 9.474 C 0 4.295 4.295 0 9.474 0 L 50.526 0 C 55.705 0 60 4.295 60 9.474 L 60 50.526 C 60 55.705 55.705 60 50.526 60 L 9.474 60 L 9.474 60 Z " fill="url(#_lgradient_2)"/></g><g><path d=" M 52.8 43.958 C 51.6 42.821 50.842 41.242 50.842 39.474 L 50.842 39.474 L 50.842 20.337 L 50.842 20.337 C 50.842 18.568 51.6 16.989 52.8 15.853 C 54.316 14.716 55.263 12.884 55.263 10.863 C 55.263 7.389 52.421 4.547 48.947 4.547 C 45.474 4.547 42.632 7.389 42.632 10.863 C 42.632 12.884 43.579 14.716 45.095 15.853 C 46.295 16.989 46.989 18.568 47.053 20.274 L 47.053 20.274 L 47.053 39.411 L 47.053 39.411 C 47.053 39.663 47.053 39.916 46.989 40.168 C 46.926 40.484 46.737 40.8 46.484 41.053 C 45.853 41.684 44.779 41.747 44.084 41.242 C 43.958 41.116 43.768 40.989 43.642 40.863 L 43.642 40.863 L 19.074 16.295 L 19.074 16.295 C 17.874 15.032 17.242 13.389 17.305 11.747 C 17.558 9.853 16.926 7.895 15.537 6.505 C 13.074 4.042 9.095 4.042 6.632 6.505 C 4.168 8.968 4.168 12.947 6.632 15.411 C 8.084 16.863 10.042 17.432 11.874 17.179 C 13.516 17.116 15.158 17.747 16.421 18.947 L 16.421 18.947 L 40.989 43.516 L 40.989 43.516 C 42.189 44.779 42.758 46.421 42.758 48.063 C 42.695 48.316 42.695 48.632 42.695 48.884 C 42.695 52.358 45.537 55.2 49.011 55.2 C 52.484 55.2 55.326 52.358 55.326 48.884 C 55.263 46.863 54.253 45.095 52.8 43.958 L 52.8 43.958 Z  M 12.379 12.379 C 11.621 13.137 10.421 13.137 9.726 12.379 C 9.032 11.621 8.968 10.421 9.726 9.726 C 10.484 9.032 11.684 8.968 12.379 9.726 C 13.074 10.484 13.137 11.621 12.379 12.379 Z  M 48.947 9.032 C 50.021 9.032 50.842 9.853 50.842 10.926 C 50.842 12 50.021 12.821 48.947 12.821 C 47.874 12.821 47.053 12 47.053 10.926 C 47.053 9.853 47.874 9.032 48.947 9.032 Z  M 48.947 50.842 C 47.874 50.842 47.053 50.021 47.053 48.947 C 47.053 47.874 47.874 47.053 48.947 47.053 C 50.021 47.053 50.842 47.874 50.842 48.947 C 50.842 50.021 50.021 50.842 48.947 50.842 Z " fill="rgb(255,255,255)"/><path d=" M 34.8 44.463 C 33.347 43.011 31.389 42.442 29.558 42.695 C 27.916 42.758 26.274 42.126 25.011 40.926 L 25.011 40.926 L 19.011 34.926 C 17.811 33.663 17.242 32.084 17.305 30.442 C 17.368 30.189 17.368 29.874 17.368 29.621 C 17.368 26.147 14.526 23.305 11.053 23.305 C 7.579 23.305 4.737 26.147 4.737 29.621 C 4.737 31.642 5.684 33.474 7.2 34.611 C 8.4 35.747 9.158 37.326 9.158 39.095 L 9.158 39.095 L 9.158 39.537 L 9.158 39.537 C 9.158 41.305 8.4 42.884 7.2 44.021 C 5.684 45.158 4.737 46.989 4.737 49.011 C 4.737 52.484 7.579 55.326 11.053 55.326 C 14.526 55.326 17.368 52.484 17.368 49.011 C 17.368 46.989 16.421 45.158 14.905 44.021 C 13.705 42.884 13.011 41.305 12.947 39.6 L 12.947 39.6 L 12.947 39.158 L 12.947 39.158 C 12.947 38.968 12.947 38.716 13.011 38.526 C 13.074 38.147 13.263 37.832 13.516 37.579 C 14.274 36.821 15.411 36.821 16.168 37.579 C 16.232 37.642 16.295 37.705 16.421 37.768 L 16.421 37.768 L 22.421 43.768 C 23.621 45.032 24.189 46.674 24.189 48.253 C 23.937 50.147 24.568 52.105 25.958 53.495 C 28.421 55.958 32.4 55.958 34.863 53.495 C 37.263 50.905 37.263 46.926 34.8 44.463 L 34.8 44.463 Z  M 11.053 50.842 C 9.979 50.842 9.158 50.021 9.158 48.947 C 9.158 47.874 9.979 47.053 11.053 47.053 C 12.126 47.053 12.947 47.874 12.947 48.947 C 12.947 50.021 12.063 50.842 11.053 50.842 Z  M 11.053 31.516 C 9.979 31.516 9.158 30.695 9.158 29.621 C 9.158 28.547 9.979 27.726 11.053 27.726 C 12.126 27.726 12.947 28.547 12.947 29.621 C 12.947 30.695 12.063 31.516 11.053 31.516 Z  M 31.705 50.274 C 30.947 51.032 29.747 51.032 29.053 50.274 C 28.358 49.516 28.295 48.316 29.053 47.621 C 29.811 46.926 31.011 46.863 31.705 47.621 C 32.4 48.379 32.463 49.516 31.705 50.274 Z " fill="rgb(255,255,255)"/></g><g transform="matrix(2.405,0,0,2.203,69.7,2.2)"><text transform="matrix(1,0,0,1,0,21.377)" style="font-family:&quot;Open Sans&quot;;font-weight:700;font-size:20px;font-style:normal;fill:#F77062;stroke:none;">Nanochip</text></g></g></svg>