<?xml version="1.0" encoding="UTF-8" standalone="no"?>
<svg
   xmlns:dc="http://purl.org/dc/elements/1.1/"
   xmlns:cc="http://creativecommons.org/ns#"
   xmlns:rdf="http://www.w3.org/1999/02/22-rdf-syntax-ns#"
   xmlns:svg="http://www.w3.org/2000/svg"
   xmlns="http://www.w3.org/2000/svg"
   xmlns:xlink="http://www.w3.org/1999/xlink"
   xml:space="preserve"
   viewBox="0 0 60 60"
   y="0px"
   x="0px"
   id="Layer_1"
   version="1.1"
   width="60"
   height="60"><metadata
     id="metadata22"><rdf:RDF><cc:Work
         rdf:about=""><dc:format>image/svg+xml</dc:format><dc:type
           rdf:resource="http://purl.org/dc/dcmitype/StillImage" /><dc:title></dc:title></cc:Work></rdf:RDF></metadata><defs
     id="defs20"><linearGradient
       id="linearGradient6137"><stop
         style="stop-color:#f77062;stop-opacity:1"
         offset="0"
         id="stop6139" /><stop
         style="stop-color:#fe5196;stop-opacity:1"
         offset="1"
         id="stop6141" /></linearGradient><linearGradient
       gradientTransform="translate(-9.1833334e-7,2.1216666e-6)"
       xlink:href="#linearGradient6137"
       id="linearGradient6143"
       x1="179.60001"
       y1="556.70001"
       x2="274.60001"
       y2="556.70001"
       gradientUnits="userSpaceOnUse" /><linearGradient
       gradientTransform="translate(-9.1833334e-7,2.1216666e-6)"
       y2="556.70001"
       x2="274.60001"
       y1="556.70001"
       x1="179.60001"
       gradientUnits="userSpaceOnUse"
       id="linearGradient4833"
       xlink:href="#linearGradient6137" /></defs><style
     id="style3"
     type="text/css">
	.st0{fill:#FF0000;}
	.st1{fill:#FFFFFF;}
</style><g
     id="XMLID_14_"
     transform="matrix(0.63157895,0,0,0.63157895,-113.43158,-321.6)"
     style="fill:url(#linearGradient6143);fill-opacity:1"><path
       style="fill:url(#linearGradient4833);fill-opacity:1"
       id="XMLID_35_"
       class="st0"
       d="m 194.6,604.2 c -8.2,0 -15,-6.8 -15,-15 l 0,-65 c 0,-8.2 6.8,-15 15,-15 l 65,0 c 8.2,0 15,6.8 15,15 l 0,65 c 0,8.2 -6.8,15 -15,15 l -65,0 z" /></g><g
     id="XMLID_2_"
     transform="matrix(0.63157895,0,0,0.63157895,-113.43158,-321.6)"><path
       style="fill:#ffffff"
       id="XMLID_8_"
       class="st1"
       d="m 263.2,578.8 c -1.9,-1.8 -3.1,-4.3 -3.1,-7.1 l 0,0 0,-30.3 0,0 c 0,-2.8 1.2,-5.3 3.1,-7.1 2.4,-1.8 3.9,-4.7 3.9,-7.9 0,-5.5 -4.5,-10 -10,-10 -5.5,0 -10,4.5 -10,10 0,3.2 1.5,6.1 3.9,7.9 1.9,1.8 3,4.3 3.1,7 l 0,0 0,30.3 0,0 c 0,0.4 0,0.8 -0.1,1.2 -0.1,0.5 -0.4,1 -0.8,1.4 -1,1 -2.7,1.1 -3.8,0.3 -0.2,-0.2 -0.5,-0.4 -0.7,-0.6 l 0,0 -38.9,-38.9 0,0 c -1.9,-2 -2.9,-4.6 -2.8,-7.2 0.4,-3 -0.6,-6.1 -2.8,-8.3 -3.9,-3.9 -10.2,-3.9 -14.1,0 -3.9,3.9 -3.9,10.2 0,14.1 2.3,2.3 5.4,3.2 8.3,2.8 2.6,-0.1 5.2,0.9 7.2,2.8 l 0,0 38.9,38.9 0,0 c 1.9,2 2.8,4.6 2.8,7.2 -0.1,0.4 -0.1,0.9 -0.1,1.3 0,5.5 4.5,10 10,10 5.5,0 10,-4.5 10,-10 -0.1,-3.2 -1.7,-6 -4,-7.8 z m -64,-50 c -1.2,1.2 -3.1,1.2 -4.2,0 -1.1,-1.2 -1.2,-3.1 0,-4.2 1.2,-1.1 3.1,-1.2 4.2,0 1.1,1.2 1.2,3 0,4.2 z m 57.9,-5.3 c 1.7,0 3,1.3 3,3 0,1.7 -1.3,3 -3,3 -1.7,0 -3,-1.3 -3,-3 0,-1.7 1.3,-3 3,-3 z m 0,66.2 c -1.7,0 -3,-1.3 -3,-3 0,-1.7 1.3,-3 3,-3 1.7,0 3,1.3 3,3 0,1.7 -1.3,3 -3,3 z" /><path
       style="fill:#ffffff"
       id="XMLID_3_"
       class="st1"
       d="m 234.7,579.6 c -2.3,-2.3 -5.4,-3.2 -8.3,-2.8 -2.6,0.1 -5.2,-0.9 -7.2,-2.8 l 0,0 -9.5,-9.5 c -1.9,-2 -2.8,-4.5 -2.7,-7.1 0.1,-0.4 0.1,-0.9 0.1,-1.3 0,-5.5 -4.5,-10 -10,-10 -5.5,0 -10,4.5 -10,10 0,3.2 1.5,6.1 3.9,7.9 1.9,1.8 3.1,4.3 3.1,7.1 l 0,0 0,0.7 0,0 c 0,2.8 -1.2,5.3 -3.1,7.1 -2.4,1.8 -3.9,4.7 -3.9,7.9 0,5.5 4.5,10 10,10 5.5,0 10,-4.5 10,-10 0,-3.2 -1.5,-6.1 -3.9,-7.9 -1.9,-1.8 -3,-4.3 -3.1,-7 l 0,0 0,-0.7 0,0 c 0,-0.3 0,-0.7 0.1,-1 0.1,-0.6 0.4,-1.1 0.8,-1.5 1.2,-1.2 3,-1.2 4.2,0 0.1,0.1 0.2,0.2 0.4,0.3 l 0,0 9.5,9.5 c 1.9,2 2.8,4.6 2.8,7.1 -0.4,3 0.6,6.1 2.8,8.3 3.9,3.9 10.2,3.9 14.1,0 3.8,-4.1 3.8,-10.4 -0.1,-14.3 z m -37.6,10.1 c -1.7,0 -3,-1.3 -3,-3 0,-1.7 1.3,-3 3,-3 1.7,0 3,1.3 3,3 0,1.7 -1.4,3 -3,3 z m 0,-30.6 c -1.7,0 -3,-1.3 -3,-3 0,-1.7 1.3,-3 3,-3 1.7,0 3,1.3 3,3 0,1.7 -1.4,3 -3,3 z m 32.7,29.7 c -1.2,1.2 -3.1,1.2 -4.2,0 -1.1,-1.2 -1.2,-3.1 0,-4.2 1.2,-1.1 3.1,-1.2 4.2,0 1.1,1.2 1.2,3 0,4.2 z" /></g></svg>