<?xml version="1.0" encoding="UTF-8" standalone="no"?>
<svg
   xmlns:dc="http://purl.org/dc/elements/1.1/"
   xmlns:cc="http://creativecommons.org/ns#"
   xmlns:rdf="http://www.w3.org/1999/02/22-rdf-syntax-ns#"
   xmlns:svg="http://www.w3.org/2000/svg"
   xmlns="http://www.w3.org/2000/svg"
   xml:space="preserve"
   style="enable-background:new 0 0 1000 800;"
   viewBox="0 0 1000 800"
   y="0px"
   x="0px"
   id="Layer_1"
   version="1.1"><metadata
     id="metadata22"><rdf:RDF><cc:Work
         rdf:about=""><dc:format>image/svg+xml</dc:format><dc:type
           rdf:resource="http://purl.org/dc/dcmitype/StillImage" /><dc:title></dc:title></cc:Work></rdf:RDF></metadata><defs
     id="defs20" /><style
     id="style3"
     type="text/css">
	.st0{fill:#FF0000;}
	.st1{fill:#FFFFFF;}
</style><g
     id="XMLID_16_"><g
       id="XMLID_14_"><path
         d="M194.6,604.2c-8.2,0-15-6.8-15-15v-65c0-8.2,6.8-15,15-15h65c8.2,0,15,6.8,15,15v65    c0,8.2-6.8,15-15,15H194.6z"
         class="st0"
         id="XMLID_35_" /></g><g
       id="XMLID_2_"><path
         d="M263.2,578.8c-1.9-1.8-3.1-4.3-3.1-7.1h0v-30.3h0c0-2.8,1.2-5.3,3.1-7.1    c2.4-1.8,3.9-4.7,3.9-7.9c0-5.5-4.5-10-10-10s-10,4.5-10,10c0,3.2,1.5,6.1,3.9,7.9c1.9,1.8,3,4.3,3.1,7h0v30.3h0    c0,0.4,0,0.8-0.1,1.2c-0.1,0.5-0.4,1-0.8,1.4c-1,1-2.7,1.1-3.8,0.3c-0.2-0.2-0.5-0.4-0.7-0.6l0,0l-38.9-38.9l0,0    c-1.9-2-2.9-4.6-2.8-7.2c0.4-3-0.6-6.1-2.8-8.3c-3.9-3.9-10.2-3.9-14.1,0c-3.9,3.9-3.9,10.2,0,14.1c2.3,2.3,5.4,3.2,8.3,2.8    c2.6-0.1,5.2,0.9,7.2,2.8l0,0l38.9,38.9l0,0c1.9,2,2.8,4.6,2.8,7.2c-0.1,0.4-0.1,0.9-0.1,1.3c0,5.5,4.5,10,10,10s10-4.5,10-10    C267.1,583.4,265.5,580.6,263.2,578.8z M199.2,528.8c-1.2,1.2-3.1,1.2-4.2,0s-1.2-3.1,0-4.2s3.1-1.2,4.2,0    S200.4,527.6,199.2,528.8z M257.1,523.5c1.7,0,3,1.3,3,3c0,1.7-1.3,3-3,3s-3-1.3-3-3C254.1,524.8,255.4,523.5,257.1,523.5z     M257.1,589.7c-1.7,0-3-1.3-3-3s1.3-3,3-3s3,1.3,3,3S258.8,589.7,257.1,589.7z"
         class="st1"
         id="XMLID_8_" /><path
         d="M234.7,579.6c-2.3-2.3-5.4-3.2-8.3-2.8c-2.6,0.1-5.2-0.9-7.2-2.8l0,0l-9.5-9.5    c-1.9-2-2.8-4.5-2.7-7.1c0.1-0.4,0.1-0.9,0.1-1.3c0-5.5-4.5-10-10-10s-10,4.5-10,10c0,3.2,1.5,6.1,3.9,7.9    c1.9,1.8,3.1,4.3,3.1,7.1h0v0.7h0c0,2.8-1.2,5.3-3.1,7.1c-2.4,1.8-3.9,4.7-3.9,7.9c0,5.5,4.5,10,10,10s10-4.5,10-10    c0-3.2-1.5-6.1-3.9-7.9c-1.9-1.8-3-4.3-3.1-7h0v-0.7h0c0-0.3,0-0.7,0.1-1c0.1-0.6,0.4-1.1,0.8-1.5c1.2-1.2,3-1.2,4.2,0    c0.1,0.1,0.2,0.2,0.4,0.3l0,0l9.5,9.5c1.9,2,2.8,4.6,2.8,7.1c-0.4,3,0.6,6.1,2.8,8.3c3.9,3.9,10.2,3.9,14.1,0    C238.6,589.8,238.6,583.5,234.7,579.6z M197.1,589.7c-1.7,0-3-1.3-3-3s1.3-3,3-3s3,1.3,3,3S198.7,589.7,197.1,589.7z M197.1,559.1    c-1.7,0-3-1.3-3-3c0-1.7,1.3-3,3-3s3,1.3,3,3C200.1,557.8,198.7,559.1,197.1,559.1z M229.8,588.8c-1.2,1.2-3.1,1.2-4.2,0    s-1.2-3.1,0-4.2s3.1-1.2,4.2,0S231,587.6,229.8,588.8z"
         class="st1"
         id="XMLID_3_" /></g></g><g
     id="XMLID_69_"><g
       id="XMLID_96_"><g
         id="XMLID_45_"><path
           d="M492.7,499.2c-8.2,0-15,6.8-15,15v75c0,8.2,6.8,15,15,15h75c8.2,0,15-6.8,15-15v-75     c0-8.2-6.8-15-15-15H492.7z M577.7,584.2c0,8.2-6.8,15-15,15h-65c-8.2,0-15-6.8-15-15v-65c0-8.2,6.8-15,15-15h65     c8.2,0,15,6.8,15,15V584.2z"
           class="st0"
           id="XMLID_46_" /></g></g><g
       id="XMLID_70_"><path
         d="M566.3,573.8c-1.9-1.8-3.1-4.3-3.1-7.1h0v-30.3h0c0-2.8,1.2-5.3,3.1-7.1    c2.4-1.8,3.9-4.7,3.9-7.9c0-5.5-4.5-10-10-10s-10,4.5-10,10c0,3.2,1.5,6.1,3.9,7.9c1.9,1.8,3,4.3,3.1,7h0v30.3h0    c0,0.4,0,0.8-0.1,1.2c-0.1,0.5-0.4,1-0.8,1.4c-1,1-2.7,1.1-3.8,0.3c-0.2-0.2-0.5-0.4-0.7-0.6l0,0l-38.9-38.9l0,0    c-1.9-2-2.9-4.6-2.8-7.2c0.4-3-0.6-6.1-2.8-8.3c-3.9-3.9-10.2-3.9-14.1,0c-3.9,3.9-3.9,10.2,0,14.1c2.3,2.3,5.4,3.2,8.3,2.8    c2.6-0.1,5.2,0.9,7.2,2.8l0,0l38.9,38.9l0,0c1.9,2,2.8,4.6,2.8,7.2c-0.1,0.4-0.1,0.9-0.1,1.3c0,5.5,4.5,10,10,10s10-4.5,10-10    C570.2,578.4,568.7,575.6,566.3,573.8z M502.3,523.8c-1.2,1.2-3.1,1.2-4.2,0s-1.2-3.1,0-4.2s3.1-1.2,4.2,0    S503.5,522.6,502.3,523.8z M560.2,518.5c1.7,0,3,1.3,3,3c0,1.7-1.3,3-3,3s-3-1.3-3-3C557.2,519.8,558.5,518.5,560.2,518.5z     M560.2,584.7c-1.7,0-3-1.3-3-3s1.3-3,3-3s3,1.3,3,3S561.9,584.7,560.2,584.7z"
         class="st0"
         id="XMLID_81_" /><path
         d="M537.8,574.6c-2.3-2.3-5.4-3.2-8.3-2.8c-2.6,0.1-5.2-0.9-7.2-2.8l0,0l-9.5-9.5    c-1.9-2-2.8-4.5-2.7-7.1c0.1-0.4,0.1-0.9,0.1-1.3c0-5.5-4.5-10-10-10s-10,4.5-10,10c0,3.2,1.5,6.1,3.9,7.9    c1.9,1.8,3.1,4.3,3.1,7.1h0v0.7h0c0,2.8-1.2,5.3-3.1,7.1c-2.4,1.8-3.9,4.7-3.9,7.9c0,5.5,4.5,10,10,10s10-4.5,10-10    c0-3.2-1.5-6.1-3.9-7.9c-1.9-1.8-3-4.3-3.1-7h0v-0.7h0c0-0.3,0-0.7,0.1-1c0.1-0.6,0.4-1.1,0.8-1.5c1.2-1.2,3-1.2,4.2,0    c0.1,0.1,0.2,0.2,0.4,0.3l0,0l9.5,9.5c1.9,2,2.8,4.6,2.8,7.1c-0.4,3,0.6,6.1,2.8,8.3c3.9,3.9,10.2,3.9,14.1,0    C541.7,584.8,541.7,578.5,537.8,574.6z M500.2,584.7c-1.7,0-3-1.3-3-3s1.3-3,3-3s3,1.3,3,3S501.8,584.7,500.2,584.7z M500.2,554.1    c-1.7,0-3-1.3-3-3c0-1.7,1.3-3,3-3s3,1.3,3,3C503.2,552.8,501.8,554.1,500.2,554.1z M532.9,583.8c-1.2,1.2-3.1,1.2-4.2,0    s-1.2-3.1,0-4.2s3.1-1.2,4.2,0S534.1,582.6,532.9,583.8z"
         class="st0"
         id="XMLID_71_" /></g></g></svg>